<svg id="Layer_1" data-name="Layer 1" xmlns="http://www.w3.org/2000/svg" viewBox="0 0 755.81 499.47"><defs><style>.cls-1{fill:none;}.cls-2{fill:#e88261;}.cls-3{fill:#FFFFFF;}</style></defs><rect class="cls-1" y="90.9" width="96.09" height="96.09"/><rect class="cls-1" x="129.5" width="96.09" height="96.09"/><rect class="cls-1" x="129.5" y="403.38" width="96.09" height="96.09"/><rect class="cls-1" x="659.72" y="193.18" width="96.09" height="96.09"/><path class="cls-2" d="M263.76,362.38a45.54,45.54,0,0,1-6,6.61,11.31,11.31,0,0,1-7,2.69,8,8,0,0,1-7.95-4.53q-2.57-4.77-5-15.54l-6.12-25q-3.44-15.17-10.65-22.39t-23.62-9.92c-.9-.15-1.83-.27-2.75-.41a68,68,0,0,0,14.5-3.63q12.5-4.77,19.71-12.11A42.64,42.64,0,0,0,239,262.51,47.08,47.08,0,0,0,242,246.85q0-18.12-14.68-30.36c-.29-.23-6-5.72-9-8.06a241,241,0,0,0-21.52-14.77q-10.47-6.51-19.43-12.22A53.42,53.42,0,0,1,163,168.64q-5.35-7.09-5.36-17.57,0-12.09,8-19.54t20.36-7.45q13,0,21.06,6.52a41.25,41.25,0,0,1,12.22,16.75,67.44,67.44,0,0,1,4.89,21.41h5.35q0-14.65.11-23.62t.47-14.43c.23-3.64.43-6.78.58-9.42h-5.35q-1.39,10.24-5.12,10.24a7.83,7.83,0,0,1-3.37-.82q-1.76-.81-4.54-2.44a63.16,63.16,0,0,0-10.71-5.93q-6-2.69-17.68-2.68a53.77,53.77,0,0,0-21.41,4.3,37.1,37.1,0,0,0-16.17,13.27q-6.16,9-6.17,22.69,0,13,5.7,22.22a57.59,57.59,0,0,0,15.25,16.17c2.82,2.07,5.75,4.11,8.75,6.15l-1.87,0q-10.53.24-22,.24-8.09,0-16.4-.24T116.16,204v4.9c5.54.16,9.75.77,12.6,1.83a9.19,9.19,0,0,1,5.76,5.88Q136,220.9,136,230V351.37q0,8.81-1.46,13.21a8.83,8.83,0,0,1-5.76,5.88,50.38,50.38,0,0,1-12.6,2v4.89q5.13-.48,13.46-.61t17.87-.12q8.56,0,17,.12t14.08.61v-4.89a50.4,50.4,0,0,1-12.61-2,8.81,8.81,0,0,1-5.75-5.88q-1.47-4.4-1.47-13.21v-56.3H182q9.8,0,14.81,4.4a29,29,0,0,1,7.83,12.12,133,133,0,0,1,5,18.24l5.39,24.47q3.42,15.68,10.28,21.05a25,25,0,0,0,15.91,5.39q10,0,15.54-4a46.7,46.7,0,0,0,10.65-11.63Zm-105-80a85.41,85.41,0,0,0,11,5.09,44.19,44.19,0,0,0,12.1,2.49c-2.14.16-4.36.25-6.73.25h-16.4Zm3.43-69.27q3.39-4.12,14.49-4.16c1.64,1.05,3.29,2.09,5,3.13q16.29,9.78,26.3,19.08a30.17,30.17,0,0,1,9.53,17.64c0,.26,0,.51,0,.78A60.07,60.07,0,0,1,214.19,270a27,27,0,0,1-2.62,5.31,21.83,21.83,0,0,1-3,2.95,33.12,33.12,0,0,1-20.83,7.33q-14.9,0-23.85-7.33a39.57,39.57,0,0,1-5.09-5V230Q158.75,217.23,162.18,213.07Z"/><polygon class="cls-2" points="279.47 398.58 279.47 394.28 104.7 394.28 104.7 104.7 275.17 104.7 275.17 398.58 279.47 398.58 279.47 394.28 279.47 398.58 283.78 398.58 283.78 96.09 96.09 96.09 96.09 402.89 283.78 402.89 283.78 398.58 279.47 398.58"/><path class="cls-3" d="M315.12,247a26.17,26.17,0,0,0,19.16,8.35c8.71,0,12.16-4.27,12.16-8.26,0-5.45-6.44-7.08-13.8-9-9.89-2.45-21.51-5.35-21.51-18.15,0-10,8.8-17.71,22.06-17.71,9.44,0,17.06,3,22.69,8.45l-6.08,7.89a24.61,24.61,0,0,0-17.52-6.89c-6.26,0-10.26,3-10.26,7.53,0,4.72,6.18,6.26,13.35,8.08,10,2.54,21.87,5.63,21.87,18.79,0,10.08-7.08,18.7-23.42,18.7-11.16,0-19.24-3.9-24.6-9.62Z"/><path class="cls-3" d="M394.82,236.09c0-6.8-3.54-8.89-8.89-8.89a14.73,14.73,0,0,0-11.26,5.9v30.59h-9.53V203.14h9.53v22.7a21,21,0,0,1,15.52-7.08c9.44,0,14.16,4.9,14.16,13.88v31.05h-9.53Z"/><path class="cls-3" d="M441.84,259c-3.26,3.72-8.35,5.81-14.16,5.81-7.17,0-15.25-4.81-15.25-14.53,0-10.07,8.08-14.25,15.25-14.25,5.9,0,11,1.91,14.16,5.63V235.1c0-5.09-4.17-8.17-10.25-8.17a18,18,0,0,0-13,5.53l-3.9-6.62a26.08,26.08,0,0,1,18.43-7.08c9.71,0,18.24,4.08,18.24,15.88v29.05h-9.53Zm0-11.89c-2.18-3-6.26-4.54-10.44-4.54-5.35,0-9.35,3.09-9.35,7.9s4,7.8,9.35,7.8c4.18,0,8.26-1.54,10.44-4.54Z"/><path class="cls-3" d="M491.68,236.28c0-6.81-3.45-9.08-8.81-9.08a14.41,14.41,0,0,0-11.25,5.9v30.59h-9.53V219.85h9.53v6a20.73,20.73,0,0,1,15.43-7.08c9.44,0,14.16,5.08,14.16,14.07v30.86h-9.53Z"/><path class="cls-3" d="M541.51,236.28c0-6.81-3.45-9.08-8.8-9.08a14.42,14.42,0,0,0-11.26,5.9v30.59h-9.53V219.85h9.53v6a20.73,20.73,0,0,1,15.43-7.08c9.44,0,14.16,5.08,14.16,14.07v30.86h-9.53Z"/><path class="cls-3" d="M559,241.72c0-12.52,8.62-23,22.51-23,14.07,0,22.6,10.44,22.6,23s-8.53,23.06-22.6,23.06C567.65,264.78,559,254.34,559,241.72Zm35.22,0c0-7.71-4.54-14.52-12.71-14.52s-12.62,6.81-12.62,14.52,4.54,14.62,12.62,14.62S594.25,249.53,594.25,241.72Z"/><path class="cls-3" d="M641.72,236.28c0-6.81-3.45-9.08-8.8-9.08a14.43,14.43,0,0,0-11.26,5.9v30.59h-9.53V219.85h9.53v6a20.77,20.77,0,0,1,15.44-7.08c9.44,0,14.16,5.08,14.16,14.07v30.86h-9.54Z"/><path class="cls-3" d="M334.28,323.21H323.75v22.61H313.13V285.27h26.59c12,0,19.79,7.81,19.79,19,0,10.81-7.08,16.61-14.34,17.79L360,345.82H347.71Zm4-28.59H323.75v19.25h14.52c6,0,10.35-3.82,10.35-9.63S344.26,294.62,338.27,294.62Z"/><path class="cls-3" d="M394.82,341.1c-3.26,3.72-8.35,5.81-14.16,5.81-7.17,0-15.25-4.81-15.25-14.53,0-10.07,8.08-14.25,15.25-14.25,5.9,0,11,1.91,14.16,5.63v-6.54c0-5.08-4.17-8.17-10.25-8.17a17.94,17.94,0,0,0-13,5.54L367.68,308a26.08,26.08,0,0,1,18.43-7.08c9.71,0,18.24,4.09,18.24,15.89v29.05h-9.53Zm0-11.89c-2.18-3-6.26-4.54-10.44-4.54-5.35,0-9.35,3.08-9.35,7.89s4,7.81,9.35,7.81c4.18,0,8.26-1.54,10.44-4.54Z"/><path class="cls-3" d="M445.38,318.4c0-6.8-3.45-9.07-8.8-9.07a14.43,14.43,0,0,0-11.26,5.9v30.59h-9.53V302h9.53v6a20.78,20.78,0,0,1,15.43-7.08c9.44,0,14.17,5.09,14.17,14.07v30.87h-9.54Z"/><path class="cls-3" d="M497.22,339.83a17.79,17.79,0,0,1-14.08,7.08c-11.25,0-19.51-8.54-19.51-23,0-14.16,8.17-23.06,19.51-23.06a17.61,17.61,0,0,1,14.08,7.18V285.27h9.53v60.55h-9.53Zm0-24.6a14.4,14.4,0,0,0-11.35-5.9c-7.54,0-12.35,6.08-12.35,14.61s4.81,14.53,12.35,14.53a14.36,14.36,0,0,0,11.35-5.81Z"/><path class="cls-3" d="M517.18,354.35c2.91-1.72,5.9-5.45,6.54-8.53a6,6,0,0,1-1.54.27,5.42,5.42,0,0,1-5.45-5.72,6.25,6.25,0,0,1,6.17-6.26c3.72,0,7.08,3,7.08,8.26,0,6.26-3.54,12-8.53,15.52Z"/><path class="cls-3" d="M552.43,312.16h22.44V318H559.18v6.89h15.36v5.8H559.18V338h15.69v5.85H552.43Z"/><path class="cls-3" d="M583,334.26A13.92,13.92,0,0,0,593,338.54c3.71,0,5.52-1.76,5.52-3.56,0-2.38-2.76-3.19-6.42-4-5.18-1.19-11.84-2.62-11.84-9.7,0-5.28,4.56-9.56,12-9.56a17.64,17.64,0,0,1,12.36,4.42l-3.75,4.95a13.54,13.54,0,0,0-9.09-3.47c-3,0-4.66,1.33-4.66,3.23,0,2.14,2.67,2.8,6.33,3.66,5.23,1.19,11.88,2.76,11.88,9.79,0,5.8-4.13,10.18-12.69,10.18-6.09,0-10.46-2.05-13.46-5Z"/><path class="cls-3" d="M638.72,339.26l2.33,2.71-4.7,3.85-2.52-3a17.78,17.78,0,0,1-7.56,1.62c-9.56,0-16.55-6.85-16.55-16.4s7-16.41,16.55-16.41,16.59,6.85,16.59,16.41A16.37,16.37,0,0,1,638.72,339.26Zm-9.12-1.38L626,333.65l4.71-3.81,3.61,4.23a11.26,11.26,0,0,0,1.62-6c0-6-3.8-10.42-9.65-10.42s-9.61,4.47-9.61,10.42,3.76,10.41,9.61,10.41A9.43,9.43,0,0,0,629.6,337.88Z"/><path class="cls-3" d="M650.71,336.69a3.85,3.85,0,1,1-3.85,3.85A3.9,3.9,0,0,1,650.71,336.69Z"/><path class="cls-3" d="M312.89,376.93h4.55v21.94h11.44v4h-16Z"/><path class="cls-3" d="M336.58,376.93h17.79v4H341.14v6.73h12.95v4H341.14v7.2h13.23v4H336.58Z"/><path class="cls-3" d="M375.06,376.5a12.2,12.2,0,0,1,10.47,5.41l-3.74,2.1a8.25,8.25,0,0,0-6.73-3.47c-5.13,0-8.95,3.93-8.95,9.38s3.82,9.42,8.95,9.42a9.52,9.52,0,0,0,6.15-2.34v-4h-7.74v-4h12.29v9.73a14.07,14.07,0,0,1-10.7,4.7c-7.51,0-13.62-5.33-13.62-13.46S367.55,376.5,375.06,376.5Z"/><path class="cls-3" d="M410.35,397.9h-12.3l-1.9,5h-5l10.19-25.95H407l10.19,25.95h-5Zm-11-4h9.72l-4.86-13.11Z"/><path class="cls-3" d="M423.65,376.93h4.55v21.94h11.44v4h-16Z"/><path class="cls-3" d="M461.77,395.72A11.2,11.2,0,0,0,470,399.3c3.73,0,5.21-1.83,5.21-3.54,0-2.34-2.76-3-5.92-3.85-4.24-1.05-9.22-2.3-9.22-7.79,0-4.28,3.78-7.58,9.46-7.58a13.51,13.51,0,0,1,9.73,3.62l-2.61,3.38a10.57,10.57,0,0,0-7.51-3c-2.69,0-4.4,1.29-4.4,3.23s2.65,2.69,5.72,3.47c4.28,1.09,9.38,2.41,9.38,8.05,0,4.32-3,8-10,8-4.78,0-8.25-1.68-10.54-4.13Z"/><path class="cls-3" d="M487.61,376.93h17.78v4H492.16v6.73h13v4h-13v7.2h13.23v4H487.61Z"/><path class="cls-3" d="M522.7,393.19h-4.51v9.69h-4.56V376.93H525c5.14,0,8.49,3.34,8.49,8.13a7.27,7.27,0,0,1-6.15,7.62l6.34,10.2h-5.25Zm1.71-12.26h-6.22v8.25h6.22c2.57,0,4.44-1.63,4.44-4.12S527,380.93,524.41,380.93Z"/><path class="cls-3" d="M538.53,376.93h5.18l7.86,21,7.86-21h5.17l-10.19,25.95h-5.69Z"/><path class="cls-3" d="M571,376.93h4.56v25.95H571Z"/><path class="cls-3" d="M583.5,389.92a13.05,13.05,0,0,1,13.43-13.42,11.84,11.84,0,0,1,10.62,5.83l-3.89,2a7.8,7.8,0,0,0-6.73-3.78c-4.95,0-8.76,3.93-8.76,9.38s3.81,9.38,8.76,9.38a7.72,7.72,0,0,0,6.73-3.78l3.89,2a11.9,11.9,0,0,1-10.62,5.84A13.05,13.05,0,0,1,583.5,389.92Z"/><path class="cls-3" d="M614.78,376.93h17.78v4H619.33v6.73h13v4h-13v7.2h13.23v4H614.78Z"/><path class="cls-3" d="M641.66,395.72a11.18,11.18,0,0,0,8.21,3.58c3.74,0,5.22-1.83,5.22-3.54,0-2.34-2.77-3-5.92-3.85-4.24-1.05-9.22-2.3-9.22-7.79,0-4.28,3.77-7.58,9.45-7.58a13.48,13.48,0,0,1,9.73,3.62l-2.6,3.38a10.59,10.59,0,0,0-7.51-3c-2.69,0-4.4,1.29-4.4,3.23s2.64,2.69,5.72,3.47c4.28,1.09,9.38,2.41,9.38,8.05,0,4.32-3,8-10,8-4.79,0-8.25-1.68-10.55-4.13Z"/></svg>